<?xml version="1.0" encoding="utf-8"?>
<!-- Generator: Adobe Illustrator 23.0.6, SVG Export Plug-In . SVG Version: 6.00 Build 0)  -->
<svg version="1.1" id="Calque_1" xmlns="http://www.w3.org/2000/svg" xmlns:xlink="http://www.w3.org/1999/xlink" x="0px" y="0px"
	 viewBox="0 0 512 512.2" style="enable-background:new 0 0 512 512.2;" xml:space="preserve">
<style type="text/css">
	.st0{opacity:0.7;}
	.st1{clip-path:url(#SVGID_2_);}
	.st2{fill:none;stroke:#AB958A;stroke-width:1.17;stroke-miterlimit:10;}
	.st3{fill:none;stroke:#AB958A;stroke-width:1.755;stroke-miterlimit:10;}
	.st4{fill:none;stroke:#AB958A;stroke-width:2.34;stroke-miterlimit:10;}
	.st5{fill:none;stroke:#AB958A;stroke-width:2.925;stroke-miterlimit:10;}
	.st6{fill:none;stroke:#AB958A;stroke-width:3.51;stroke-miterlimit:10;}
	.st7{fill:none;stroke:#AB958A;stroke-width:4.094;stroke-miterlimit:10;}
	.st8{fill:none;stroke:#AB958A;stroke-width:4.679;stroke-miterlimit:10;}
	.st9{fill:none;stroke:#AB958A;stroke-width:5.264;stroke-miterlimit:10;}
	.st10{fill:none;stroke:#AB958A;stroke-width:5.849;stroke-miterlimit:10;}
	.st11{fill:none;stroke:#AB958A;stroke-width:6.454;stroke-miterlimit:10;}
	.st12{fill:none;stroke:#AB958A;stroke-width:7.019;stroke-miterlimit:10;}
	.st13{fill:none;stroke:#AB958A;stroke-width:7.604;stroke-miterlimit:10;}
	.st14{fill:none;stroke:#AB958A;stroke-width:8.189;stroke-miterlimit:10;}
	.st15{fill:none;stroke:#AB958A;stroke-width:8.774;stroke-miterlimit:10;}
	.st16{fill:none;stroke:#AB958A;stroke-width:9.359;stroke-miterlimit:10;}
	.st17{fill:none;stroke:#AB958A;stroke-width:9.944;stroke-miterlimit:10;}
	.st18{fill:none;stroke:#AB958A;stroke-width:10.561;stroke-miterlimit:10;}
	.st19{fill:none;stroke:#AB958A;stroke-width:11.113;stroke-miterlimit:10;}
	.st20{fill:none;stroke:#AB958A;stroke-width:11.698;stroke-miterlimit:10;}
	.st21{fill:none;stroke:#AB958A;stroke-width:12.283;stroke-miterlimit:10;}
	.st22{fill:none;stroke:#AB958A;stroke-width:12.868;stroke-miterlimit:10;}
	.st23{fill:none;stroke:#AB958A;stroke-width:13.453;stroke-miterlimit:10;}
	.st24{fill:none;stroke:#AB958A;stroke-width:14.038;stroke-miterlimit:10;}
	.st25{fill:none;stroke:#AB958A;stroke-width:0.325;stroke-miterlimit:10;}
	.st26{fill:#AB958A;}
</style>
<g id="NeodenSeul" transform="translate(-76.932 0.003)" class="st0">
	<g transform="translate(76.932 -0.003)">
		<g>
			<defs>
				<path id="SVGID_1_" d="M386.8,418.4c-7.1-0.1-13.8-3.2-18.4-8.6c-4.3-4.7-6.8-10.9-6.8-17.3V224.8
					c0-58.1-47.1-105.1-105.1-105.1s-105.1,47.1-105.1,105.1v167.8c-0.5,14.1-11.8,25.3-25.9,25.9c-7.1-0.1-13.8-3.2-18.4-8.6
					c-4.4-4.7-6.9-10.9-6.9-17.4v-165c-0.1-20.9,4-41.7,12-61c7.6-18.5,18.8-35.3,33-49.6c14.2-14.1,31-25.4,49.4-33.2
					c39.6-16.5,84.1-16.5,123.6,0c18.4,7.9,35.2,19.1,49.4,33.2c14.1,14.2,25.3,31,32.9,49.6c8,19.3,12.1,40.1,12,61v165
					C412,406.5,400.8,417.8,386.8,418.4L386.8,418.4z"/>
			</defs>
			<clipPath id="SVGID_2_">
				<use xlink:href="#SVGID_1_"  style="overflow:visible;"/>
			</clipPath>
			<g id="Groupe_180" transform="translate(38.042 35.694)" class="st1">
				
					<ellipse id="Ellipse_118" transform="matrix(0.9352 -0.3541 0.3541 0.9352 -84.9206 122.1652)" class="st2" cx="291.3" cy="293.1" rx="422" ry="312.5"/>
				
					<ellipse id="Ellipse_119" transform="matrix(0.9352 -0.3541 0.3541 0.9352 -84.9201 122.1654)" class="st3" cx="291.3" cy="293.1" rx="384.1" ry="284.4"/>
				
					<ellipse id="Ellipse_120" transform="matrix(0.9352 -0.3541 0.3541 0.9352 -84.9203 122.1652)" class="st4" cx="291.3" cy="293.1" rx="345.7" ry="256"/>
				
					<ellipse id="Ellipse_121" transform="matrix(0.9352 -0.3541 0.3541 0.9352 -84.9207 122.1657)" class="st5" cx="291.3" cy="293.1" rx="311.1" ry="230.4"/>
				
					<ellipse id="Ellipse_122" transform="matrix(0.9352 -0.3541 0.3541 0.9352 -84.9208 122.1653)" class="st6" cx="291.3" cy="293.1" rx="280" ry="207.4"/>
				
					<ellipse id="Ellipse_123" transform="matrix(0.9352 -0.3541 0.3541 0.9352 -84.9199 122.1654)" class="st7" cx="291.3" cy="293.1" rx="252" ry="186.6"/>
				
					<ellipse id="Ellipse_124" transform="matrix(0.9352 -0.3541 0.3541 0.9352 -84.9205 122.1655)" class="st8" cx="291.3" cy="293.1" rx="226.8" ry="168"/>
				
					<ellipse id="Ellipse_125" transform="matrix(0.9352 -0.3541 0.3541 0.9352 -84.9204 122.1654)" class="st9" cx="291.3" cy="293.1" rx="204.1" ry="151.1"/>
				
					<ellipse id="Ellipse_126" transform="matrix(0.9352 -0.3541 0.3541 0.9352 -84.9204 122.1653)" class="st10" cx="291.3" cy="293.1" rx="183.7" ry="136"/>
				
					<ellipse id="Ellipse_127" transform="matrix(0.9371 -0.349 0.349 0.9371 -85.0624 120.504)" class="st11" cx="291.9" cy="296.3" rx="165.8" ry="122.8"/>
				
					<ellipse id="Ellipse_128" transform="matrix(0.9352 -0.3541 0.3541 0.9352 -84.9202 122.1657)" class="st12" cx="291.3" cy="293.1" rx="148.8" ry="110.2"/>
				
					<ellipse id="Ellipse_129" transform="matrix(0.9352 -0.3541 0.3541 0.9352 -84.9207 122.166)" class="st13" cx="291.3" cy="293.1" rx="133.9" ry="99.2"/>
				
					<ellipse id="Ellipse_130" transform="matrix(0.9352 -0.3541 0.3541 0.9352 -84.921 122.1657)" class="st14" cx="291.3" cy="293.1" rx="120.5" ry="89.3"/>
				
					<ellipse id="Ellipse_131" transform="matrix(0.9352 -0.3541 0.3541 0.9352 -84.9198 122.166)" class="st15" cx="291.3" cy="293.1" rx="108.5" ry="80.3"/>
				
					<ellipse id="Ellipse_132" transform="matrix(0.9352 -0.3541 0.3541 0.9352 -84.9205 122.1656)" class="st16" cx="291.3" cy="293.1" rx="97.6" ry="72.3"/>
				
					<ellipse id="Ellipse_133" transform="matrix(0.9352 -0.3541 0.3541 0.9352 -84.9201 122.1656)" class="st17" cx="291.3" cy="293.1" rx="87.9" ry="65.1"/>
				
					<ellipse id="Ellipse_134" transform="matrix(0.9371 -0.349 0.349 0.9371 -85.0669 120.5077)" class="st18" cx="291.9" cy="296.3" rx="79.3" ry="58.7"/>
				
					<ellipse id="Ellipse_135" transform="matrix(0.9352 -0.3541 0.3541 0.9352 -84.92 122.1664)" class="st19" cx="291.3" cy="293.1" rx="71.2" ry="52.7"/>
				
					<ellipse id="Ellipse_136" transform="matrix(0.9352 -0.3541 0.3541 0.9352 -84.9206 122.166)" class="st20" cx="291.3" cy="293.1" rx="64.1" ry="47.4"/>
				
					<ellipse id="Ellipse_137" transform="matrix(0.9352 -0.3541 0.3541 0.9352 -84.9204 122.1653)" class="st21" cx="291.3" cy="293.1" rx="57.6" ry="42.7"/>
				
					<ellipse id="Ellipse_138" transform="matrix(0.9352 -0.3541 0.3541 0.9352 -84.9202 122.1659)" class="st22" cx="291.3" cy="293.1" rx="51.9" ry="38.4"/>
				
					<ellipse id="Ellipse_139" transform="matrix(0.9352 -0.3541 0.3541 0.9352 -84.9201 122.1659)" class="st23" cx="291.3" cy="293.1" rx="46.7" ry="34.6"/>
				
					<ellipse id="Ellipse_140" transform="matrix(0.9352 -0.3541 0.3541 0.9352 -84.9206 122.166)" class="st24" cx="291.3" cy="293.1" rx="42" ry="31.1"/>
			</g>
		</g>
		<path id="SVGID-2" class="st25" d="M386.8,418.4c-7.1-0.1-13.8-3.2-18.4-8.6c-4.3-4.7-6.8-10.9-6.8-17.3V224.8
			c0-58.1-47.1-105.1-105.1-105.1s-105.1,47.1-105.1,105.1v167.8c-0.5,14.1-11.8,25.3-25.9,25.9c-7.1-0.1-13.8-3.2-18.4-8.6
			c-4.4-4.7-6.9-10.9-6.9-17.4v-165c-0.1-20.9,4-41.7,12-61c7.6-18.5,18.8-35.3,33-49.6c14.2-14.1,31-25.4,49.4-33.2
			c39.6-16.5,84.1-16.5,123.6,0c18.4,7.9,35.2,19.1,49.4,33.2c14.1,14.2,25.3,31,32.9,49.6c8,19.3,12.1,40.1,12,61v165
			C412,406.5,400.8,417.8,386.8,418.4L386.8,418.4z"/>
		<path id="Tracé_425" class="st26" d="M449.4,512.1c-10.5-0.1-20.4-4.7-27.2-12.6c-6.4-6.9-10-16-10.1-25.5V226.4
			c0.1-20.7-4-41.2-12-60.3C366.4,86.5,274.6,49.3,195,83c-37.5,15.8-67.3,45.7-83.1,83.1c-8,19.1-12.1,39.6-12,60.3V474
			c-0.1,10.1-4.3,19.7-11.7,26.6c-7,7.3-16.6,11.5-26.8,11.6c-10.5-0.1-20.4-4.7-27.2-12.6c-6.5-6.9-10.1-16.1-10.1-25.5V230.4
			c-0.1-30.9,5.9-61.4,17.8-89.9c11.3-27.4,28-52.2,48.9-73.2c21.1-20.8,46-37.5,73.3-49c58.8-24.4,124.8-24.4,183.6,0
			c27.4,11.6,52.3,28.2,73.4,49.1c20.9,20.9,37.5,45.7,48.9,73.1c11.9,28.5,18,59.1,17.9,89.9V474c-0.1,10.1-4.3,19.7-11.7,26.6
			C469.3,507.9,459.6,512.1,449.4,512.1z"/>
	</g>
</g>
</svg>
