<svg xmlns="http://www.w3.org/2000/svg" viewBox="0 0 159.537 53.142"><path d="M5.435,62.072a3.047,3.047,0,0,0-.967-.68,3.128,3.128,0,0,0-2.45-.008,2.965,2.965,0,0,0-.984.682,3.112,3.112,0,0,0-.644,1.022,3.406,3.406,0,0,0-.23,1.252A3.178,3.178,0,0,0,.411,65.6,3.242,3.242,0,0,0,1.1,66.616,3.158,3.158,0,0,0,2.11,67.3a3.217,3.217,0,0,0,1.25.245,3.145,3.145,0,0,0,1.553-.4,3.031,3.031,0,0,0,1.1-1.019.359.359,0,0,0,.106-.255.438.438,0,0,0-.194-.347.491.491,0,0,0-.25-.071.36.36,0,0,0-.3.186,2.55,2.55,0,0,1-.865.837,2.359,2.359,0,0,1-2.065.111A2.407,2.407,0,0,1,1.7,66.07a2.51,2.51,0,0,1-.509-.759,2.383,2.383,0,0,1-.184-.684H5.938a.4.4,0,0,0,.262-.1l0,0a.376.376,0,0,0,.126-.3,3.156,3.156,0,0,0-.251-1.175,3.277,3.277,0,0,0-.642-.984m-1.319,0a2.133,2.133,0,0,1,.682.467,2.454,2.454,0,0,1,.479.7,2.525,2.525,0,0,1,.187.611H1.025a2.476,2.476,0,0,1,.187-.611,2.38,2.38,0,0,1,.483-.7,2.183,2.183,0,0,1,.7-.468,2.3,2.3,0,0,1,1.724,0" transform="translate(-0.043 -16.716)" fill="#fff"/><path d="M17.386,64.684a5.769,5.769,0,0,0-1.575-.726q-.566-.181-.956-.32a2.975,2.975,0,0,1-.587-.274.647.647,0,0,1-.339-.618.633.633,0,0,1,.376-.6,2.422,2.422,0,0,1,1.162-.243,3.34,3.34,0,0,1,.962.132,2.747,2.747,0,0,1,.889.49.363.363,0,0,0,.536-.158.373.373,0,0,0,.038-.171.44.44,0,0,0-.143-.318,2.814,2.814,0,0,0-.968-.553,4.048,4.048,0,0,0-1.314-.194,3.577,3.577,0,0,0-.881.1,2.728,2.728,0,0,0-.736.3,1.6,1.6,0,0,0-.538.517,1.319,1.319,0,0,0-.206.716,1.286,1.286,0,0,0,.21.741,1.73,1.73,0,0,0,.516.488,3.594,3.594,0,0,0,.679.327c.241.087.482.169.725.248a8.669,8.669,0,0,1,1.529.634.657.657,0,0,1,.408.592.678.678,0,0,1-.118.413,1.067,1.067,0,0,1-.347.309,1.688,1.688,0,0,1-.528.186,3.412,3.412,0,0,1-1.784-.138,2.363,2.363,0,0,1-.872-.535.382.382,0,0,0-.271-.121.4.4,0,0,0-.283.12.381.381,0,0,0-.122.272.374.374,0,0,0,.116.266,2.314,2.314,0,0,0,.547.425,4.2,4.2,0,0,0,.637.294,4.014,4.014,0,0,0,1.37.248,3.836,3.836,0,0,0,.945-.112,2.574,2.574,0,0,0,.776-.328,1.793,1.793,0,0,0,.544-.545A1.4,1.4,0,0,0,18,65.8a1.333,1.333,0,0,0-.61-1.117" transform="translate(-3.513 -16.716)" fill="#fff"/><path d="M30.664,62.074a3.243,3.243,0,0,0-1.011-.684,3.137,3.137,0,0,0-1.253-.252,3.039,3.039,0,0,0-1.676.484,3.464,3.464,0,0,0-.7.6v-.613a.419.419,0,0,0-.112-.28.385.385,0,0,0-.293-.138.44.44,0,0,0-.418.418v7.847a.385.385,0,0,0,.137.291.415.415,0,0,0,.281.113.383.383,0,0,0,.4-.4v-3a3.444,3.444,0,0,0,.7.6,3.037,3.037,0,0,0,1.676.485,3.13,3.13,0,0,0,1.253-.253,3.225,3.225,0,0,0,1.7-1.7,3.233,3.233,0,0,0,0-2.507,3.266,3.266,0,0,0-.684-1.011m.115,2.265a2.372,2.372,0,0,1-.188.937,2.558,2.558,0,0,1-.509.777,2.4,2.4,0,0,1-.755.525,2.323,2.323,0,0,1-1.854,0,2.4,2.4,0,0,1-.755-.525,2.568,2.568,0,0,1-.51-.777,2.432,2.432,0,0,1,0-1.872,2.538,2.538,0,0,1,.51-.777,2.408,2.408,0,0,1,.754-.525,2.32,2.32,0,0,1,1.854,0,2.411,2.411,0,0,1,.755.525,2.537,2.537,0,0,1,.509.777,2.37,2.37,0,0,1,.188.937" transform="translate(-6.89 -16.716)" fill="#fff"/><path d="M43.308,62.1a3.127,3.127,0,0,0-1-.7,3.309,3.309,0,0,0-2.562,0,3.127,3.127,0,0,0-1,.7,3.258,3.258,0,0,0-.656,1.018,3.21,3.21,0,0,0-.238,1.223,3.277,3.277,0,0,0,.238,1.248,3.121,3.121,0,0,0,.666,1.014,3.152,3.152,0,0,0,2.273.939,2.931,2.931,0,0,0,1.715-.5,3.422,3.422,0,0,0,.638-.581v.607a.438.438,0,0,0,.418.418.386.386,0,0,0,.291-.136l0,0a.421.421,0,0,0,.11-.28V64.339a3.216,3.216,0,0,0-.238-1.223,3.258,3.258,0,0,0-.656-1.018m.072,2.241a2.445,2.445,0,0,1-.182.939,2.405,2.405,0,0,1-1.252,1.3,2.308,2.308,0,0,1-2.588-.512,2.456,2.456,0,0,1-.5-.774,2.506,2.506,0,0,1,.5-2.68,2.342,2.342,0,0,1,.747-.517,2.287,2.287,0,0,1,.922-.187,2.188,2.188,0,0,1,.906.193,2.421,2.421,0,0,1,.75.526,2.554,2.554,0,0,1,.509.777,2.37,2.37,0,0,1,.188.937" transform="translate(-10.349 -16.716)" fill="#fff"/><path d="M56.487,65.448a.359.359,0,0,0-.3.187,2.554,2.554,0,0,1-.865.836,2.352,2.352,0,0,1-2.078.105,2.414,2.414,0,0,1-.755-.525,2.561,2.561,0,0,1-.509-.777,2.423,2.423,0,0,1,0-1.872,2.553,2.553,0,0,1,.509-.777,2.394,2.394,0,0,1,.755-.525,2.26,2.26,0,0,1,.927-.193,2.318,2.318,0,0,1,1.774.811.379.379,0,0,0,.567,0,.382.382,0,0,0,.11-.284.4.4,0,0,0-.105-.294,3.237,3.237,0,0,0-3.6-.752,3.212,3.212,0,0,0-1.7,1.7,3.229,3.229,0,0,0,0,2.505,3.212,3.212,0,0,0,1.7,1.7,3.22,3.22,0,0,0,2.806-.146A3.158,3.158,0,0,0,56.845,66.1a.364.364,0,0,0,.072-.233.421.421,0,0,0-.182-.346.482.482,0,0,0-.248-.072" transform="translate(-13.935 -16.715)" fill="#fff"/><path d="M68.183,62.072a3.043,3.043,0,0,0-.967-.68,3.131,3.131,0,0,0-2.45-.008,2.969,2.969,0,0,0-.984.682,3.12,3.12,0,0,0-.644,1.022,3.415,3.415,0,0,0-.23,1.252,3.183,3.183,0,0,0,.252,1.258,3.23,3.23,0,0,0,.684,1.019,3.15,3.15,0,0,0,1.014.679,3.218,3.218,0,0,0,1.251.245,3.141,3.141,0,0,0,1.552-.4,3.018,3.018,0,0,0,1.1-1.017.354.354,0,0,0,.109-.257.437.437,0,0,0-.194-.347.489.489,0,0,0-.25-.071.361.361,0,0,0-.3.186,2.543,2.543,0,0,1-.865.837,2.316,2.316,0,0,1-2.808-.4,2.487,2.487,0,0,1-.509-.758,2.4,2.4,0,0,1-.183-.684h4.926a.4.4,0,0,0,.264-.1h0a.376.376,0,0,0,.128-.3,3.169,3.169,0,0,0-.252-1.175,3.258,3.258,0,0,0-.642-.984m-1.319,0a2.122,2.122,0,0,1,.682.467,2.474,2.474,0,0,1,.666,1.314H63.773a2.485,2.485,0,0,1,.187-.611,2.375,2.375,0,0,1,.483-.7,2.188,2.188,0,0,1,.7-.468,2.3,2.3,0,0,1,1.724,0" transform="translate(-17.199 -16.716)" fill="#fff"/><path d="M88.848,57.056a.435.435,0,0,0-.416.417V61.1a3.5,3.5,0,0,0-.7-.6,3.044,3.044,0,0,0-1.676-.484,3.114,3.114,0,0,0-1.252.253,3.2,3.2,0,0,0-1.7,1.7,3.221,3.221,0,0,0,0,2.505,3.206,3.206,0,0,0,1.7,1.7,3.122,3.122,0,0,0,1.252.254,3.044,3.044,0,0,0,1.676-.485,3.5,3.5,0,0,0,.7-.6v.614a.435.435,0,0,0,.416.418.388.388,0,0,0,.292-.137.415.415,0,0,0,.112-.28V57.473a.412.412,0,0,0-.11-.278.39.39,0,0,0-.294-.139m-3.715,8.405a2.462,2.462,0,0,1-.758-.526,2.412,2.412,0,0,1-.509-.774,2.509,2.509,0,0,1,0-1.878,2.411,2.411,0,0,1,.509-.772,2.479,2.479,0,0,1,.757-.528,2.23,2.23,0,0,1,.918-.192,2.276,2.276,0,0,1,.927.193,2.415,2.415,0,0,1,.756.525,2.579,2.579,0,0,1,.509.777,2.414,2.414,0,0,1,0,1.872,2.569,2.569,0,0,1-.509.778,2.411,2.411,0,0,1-.756.524,2.309,2.309,0,0,1-1.846,0" transform="translate(-22.652 -15.6)" fill="#fff"/><path d="M102.49,63.055a3.275,3.275,0,0,0-.642-.984,3.034,3.034,0,0,0-.968-.68,3.13,3.13,0,0,0-2.449-.008,2.958,2.958,0,0,0-.984.682,3.143,3.143,0,0,0-.645,1.022,3.406,3.406,0,0,0-.229,1.252,3.184,3.184,0,0,0,.251,1.258,3.232,3.232,0,0,0,.685,1.019,3.162,3.162,0,0,0,1.014.679,3.213,3.213,0,0,0,1.251.246,3.153,3.153,0,0,0,1.553-.4,3.051,3.051,0,0,0,1.1-1.019.357.357,0,0,0,.106-.255.435.435,0,0,0-.195-.347.489.489,0,0,0-.249-.071.359.359,0,0,0-.3.186,2.549,2.549,0,0,1-.865.837,2.315,2.315,0,0,1-2.808-.4,2.5,2.5,0,0,1-.51-.758,2.448,2.448,0,0,1-.183-.684h4.926a.4.4,0,0,0,.262-.094l.005,0a.382.382,0,0,0,.125-.3,3.162,3.162,0,0,0-.253-1.174m-1.961-.979a2.116,2.116,0,0,1,.682.466,2.457,2.457,0,0,1,.48.7,2.5,2.5,0,0,1,.186.611H97.438a2.5,2.5,0,0,1,.188-.611,2.372,2.372,0,0,1,.483-.7,2.187,2.187,0,0,1,.7-.468,2.289,2.289,0,0,1,1.723,0" transform="translate(-26.404 -16.716)" fill="#fff"/><path d="M120.373,57.183a.369.369,0,0,0-.283-.127h-.336a2.973,2.973,0,0,0-.977.137,1.464,1.464,0,0,0-.668.448,1.714,1.714,0,0,0-.34.74,4.715,4.715,0,0,0-.09.982v.826h-.7a.358.358,0,0,0-.378.379.4.4,0,0,0,.1.264.365.365,0,0,0,.283.128h.7v4.995a.438.438,0,0,0,.418.418.388.388,0,0,0,.294-.139.421.421,0,0,0,.11-.279V60.96h1.046a.368.368,0,0,0,.285-.129.405.405,0,0,0,.094-.262.358.358,0,0,0-.379-.379H118.5v-.878a4.472,4.472,0,0,1,.054-.761.968.968,0,0,1,.174-.427.656.656,0,0,1,.332-.219,2.3,2.3,0,0,1,.666-.079h.363a.359.359,0,0,0,.379-.379.4.4,0,0,0-.1-.264" transform="translate(-31.881 -15.6)" fill="#fff"/><path d="M127.1,57.193a.382.382,0,0,0-.292-.137.438.438,0,0,0-.418.417v8.495a.39.39,0,0,0,.139.295.42.42,0,0,0,.279.11.383.383,0,0,0,.4-.4V57.473a.411.411,0,0,0-.113-.28" transform="translate(-34.556 -15.6)" fill="#fff"/><path d="M138.579,63.085a3.206,3.206,0,0,0-5.9,0,3.238,3.238,0,0,0,0,2.505,3.225,3.225,0,0,0,1.7,1.7,3.222,3.222,0,0,0,2.506,0,3.221,3.221,0,0,0,1.7-1.7,3.231,3.231,0,0,0,0-2.506m-2.949-1.179a2.259,2.259,0,0,1,.926.193,2.377,2.377,0,0,1,.755.525,2.564,2.564,0,0,1,.51.777,2.432,2.432,0,0,1,0,1.872,2.564,2.564,0,0,1-.51.777,2.4,2.4,0,0,1-.754.525,2.332,2.332,0,0,1-1.854,0,2.406,2.406,0,0,1-.755-.525,2.58,2.58,0,0,1-.511-.777,2.433,2.433,0,0,1,0-1.873,2.564,2.564,0,0,1,.51-.777,2.4,2.4,0,0,1,.755-.525,2.26,2.26,0,0,1,.927-.193" transform="translate(-36.208 -16.716)" fill="#fff"/><path d="M147.923,60.574h-.968V58.881a.423.423,0,0,0-.113-.283.386.386,0,0,0-.292-.135.4.4,0,0,0-.289.128.4.4,0,0,0-.128.29v1.693h-.852a.359.359,0,0,0-.379.379.4.4,0,0,0,.1.264.365.365,0,0,0,.282.128h.852v5.007a.385.385,0,0,0,.14.295.419.419,0,0,0,.278.11.384.384,0,0,0,.405-.405V61.345h.968a.367.367,0,0,0,.283-.128l0,0a.4.4,0,0,0,.094-.262.358.358,0,0,0-.379-.379" transform="translate(-39.618 -15.985)" fill="#fff"/><path d="M156.086,60.574h-.969V58.881a.422.422,0,0,0-.111-.28.39.39,0,0,0-.294-.137.4.4,0,0,0-.289.128.4.4,0,0,0-.128.29v1.693h-.851a.359.359,0,0,0-.379.379.4.4,0,0,0,.094.262.364.364,0,0,0,.285.13h.851v5.007a.384.384,0,0,0,.14.295.417.417,0,0,0,.277.11.384.384,0,0,0,.4-.405V61.345h.969a.366.366,0,0,0,.282-.128l0,0a.4.4,0,0,0,.093-.262.358.358,0,0,0-.378-.379" transform="translate(-41.85 -15.985)" fill="#fff"/><path d="M167.519,63.116a3.257,3.257,0,0,0-.655-1.018,3.107,3.107,0,0,0-1-.7,3.3,3.3,0,0,0-2.562,0,3.117,3.117,0,0,0-1,.7,3.25,3.25,0,0,0-.655,1.019,3.208,3.208,0,0,0-.238,1.223,3.271,3.271,0,0,0,.238,1.248,3.11,3.11,0,0,0,.665,1.016,3.179,3.179,0,0,0,1.007.684,3.145,3.145,0,0,0,1.266.254,2.924,2.924,0,0,0,1.715-.5,3.377,3.377,0,0,0,.639-.581v.607a.438.438,0,0,0,.417.419.387.387,0,0,0,.292-.136l0,0a.419.419,0,0,0,.11-.279V64.339a3.2,3.2,0,0,0-.238-1.223m-2.938-1.209a2.191,2.191,0,0,1,.906.193,2.41,2.41,0,0,1,.75.525,2.549,2.549,0,0,1,.509.777,2.378,2.378,0,0,1,.188.937,2.429,2.429,0,0,1-.183.939,2.479,2.479,0,0,1-.5.775,2.433,2.433,0,0,1-.749.525,2.307,2.307,0,0,1-2.589-.512,2.508,2.508,0,0,1,0-3.453,2.335,2.335,0,0,1,.746-.517,2.3,2.3,0,0,1,.923-.187" transform="translate(-44.131 -16.716)" fill="#fff"/><path d="M176.116,61.207a.4.4,0,0,0-.288.127.4.4,0,0,0-.13.291v5.465a.4.4,0,0,0,.129.29.4.4,0,0,0,.289.128.383.383,0,0,0,.291-.136l0,0a.42.42,0,0,0,.11-.278V61.625a.42.42,0,0,0-.113-.28.383.383,0,0,0-.292-.138" transform="translate(-48.038 -16.735)" fill="#fff"/><path d="M176.087,59.3a.452.452,0,0,0,.482-.482.491.491,0,0,0-.134-.341.492.492,0,0,0-.844.341.465.465,0,0,0,.155.35.5.5,0,0,0,.34.132" transform="translate(-48.009 -15.947)" fill="#fff"/><path d="M186.831,64.684a5.8,5.8,0,0,0-1.575-.726q-.566-.181-.956-.32a2.968,2.968,0,0,1-.586-.274.65.65,0,0,1-.339-.618.632.632,0,0,1,.376-.6,2.417,2.417,0,0,1,1.161-.243,3.34,3.34,0,0,1,.962.132,2.736,2.736,0,0,1,.888.49.364.364,0,0,0,.538-.158.378.378,0,0,0,.038-.171.439.439,0,0,0-.144-.318,2.8,2.8,0,0,0-.967-.553,4.049,4.049,0,0,0-1.314-.194,3.562,3.562,0,0,0-.88.1,2.708,2.708,0,0,0-.736.3,1.594,1.594,0,0,0-.538.517,1.319,1.319,0,0,0-.206.716,1.289,1.289,0,0,0,.21.741,1.741,1.741,0,0,0,.516.488,3.577,3.577,0,0,0,.68.326c.24.087.482.169.724.248a8.681,8.681,0,0,1,1.529.634.656.656,0,0,1,.407.592.679.679,0,0,1-.118.412,1.057,1.057,0,0,1-.347.309,1.683,1.683,0,0,1-.528.187,3.4,3.4,0,0,1-1.785-.138,2.372,2.372,0,0,1-.873-.535.381.381,0,0,0-.27-.121.4.4,0,0,0-.284.121.363.363,0,0,0-.005.536,2.311,2.311,0,0,0,.548.425,4.182,4.182,0,0,0,.637.294,4.014,4.014,0,0,0,1.37.248,3.83,3.83,0,0,0,.945-.112,2.575,2.575,0,0,0,.777-.328,1.8,1.8,0,0,0,.543-.545,1.4,1.4,0,0,0,.211-.753,1.334,1.334,0,0,0-.61-1.117" transform="translate(-49.841 -16.716)" fill="#fff"/><path d="M199.723,63.085a3.2,3.2,0,0,0-5.213-1.012,3.307,3.307,0,0,0-.685,1.012,3.244,3.244,0,0,0,0,2.506,3.227,3.227,0,0,0,1.7,1.7,3.222,3.222,0,0,0,2.506,0,3.221,3.221,0,0,0,1.7-1.7,3.231,3.231,0,0,0,0-2.506m-2.948-1.179a2.254,2.254,0,0,1,.926.193,2.4,2.4,0,0,1,.756.525,2.563,2.563,0,0,1,.509.777h0a2.433,2.433,0,0,1,0,1.873,2.572,2.572,0,0,1-.509.777,2.417,2.417,0,0,1-.756.525,2.327,2.327,0,0,1-1.853,0,2.4,2.4,0,0,1-.755-.525,2.554,2.554,0,0,1-.51-.777,2.433,2.433,0,0,1,0-1.873,2.562,2.562,0,0,1,.509-.777,2.4,2.4,0,0,1,.755-.525,2.26,2.26,0,0,1,.927-.193" transform="translate(-52.925 -16.716)" fill="#fff"/><path d="M212.513,62.875h0a2.8,2.8,0,0,0-.6-.9,2.875,2.875,0,0,0-.9-.606,2.949,2.949,0,0,0-2.26,0,2.9,2.9,0,0,0-.9.607,2.808,2.808,0,0,0-.6.9,2.867,2.867,0,0,0-.219,1.115V67.07a.423.423,0,0,0,.113.283.387.387,0,0,0,.291.136.409.409,0,0,0,.29-.128.4.4,0,0,0,.128-.291V63.937a2.028,2.028,0,0,1,.591-1.439,2.042,2.042,0,0,1,.65-.434,2.07,2.07,0,0,1,1.577,0,2.018,2.018,0,0,1,1.241,1.873V67.07a.422.422,0,0,0,.111.28.392.392,0,0,0,.294.138.438.438,0,0,0,.418-.419V63.989a2.873,2.873,0,0,0-.219-1.114" transform="translate(-56.604 -16.716)" fill="#fff"/><path d="M54.292,25.99v.5c0,4.068,3.029,8.092,7.369,8.092,2.577,0,4.115-.542,5.426-1.9,1.4-1.447,1.221-2.441,1.808-2.441a.365.365,0,0,1,.317.407c0,1.447-2.486,7.279-9.539,7.279-5.878,0-10.354-4.2-10.354-10.715A10.634,10.634,0,0,1,59.9,16.677c4.793,0,9.224,3.029,9.224,9.313Zm9.856-1.085v-.995c0-3.98-1.447-6.149-4.431-6.149-3.752,0-5.38,4.386-5.425,7.144Z" transform="translate(-13.484 -4.56)" fill="#fff"/><path d="M103.99,27.3a11.039,11.039,0,0,1-22.063,0,11.039,11.039,0,0,1,22.063,0m-5.425,0c0-7.1-2.26-9.54-5.606-9.54S87.352,20.2,87.352,27.3s2.261,9.539,5.606,9.539S98.564,34.4,98.564,27.3" transform="translate(-22.399 -4.56)" fill="#fff"/><path d="M137.934,27.942c0,2.441,2.893,2.079,2.893,2.938,0,.769-1.537.227-7.777,2.486V29.8h-.09a9.015,9.015,0,0,1-6.782,3.571c-6.058,0-8.41-5.109-8.41-9.449a11.312,11.312,0,0,1,11.574-11.8,29.784,29.784,0,0,1,3.618.361V6.918c0-3.753-3.618-2.758-3.618-3.753s3.075-.542,8.591-3.165Zm-4.974-10.67a3.9,3.9,0,0,0-4.07-4.07c-3.707,0-6.148,3.3-6.148,9.133,0,5.878,2.848,8.681,5.923,8.681a4.7,4.7,0,0,0,4.295-3.029Z" transform="translate(-32.199)" fill="#fff"/><path d="M158.336,25.99v.5c0,4.068,3.028,8.092,7.369,8.092,2.577,0,4.114-.542,5.425-1.9,1.4-1.447,1.221-2.441,1.808-2.441a.365.365,0,0,1,.317.407c0,1.447-2.487,7.279-9.54,7.279-5.877,0-10.353-4.2-10.353-10.715a10.634,10.634,0,0,1,10.579-10.534c4.793,0,9.223,3.029,9.223,9.313Zm9.855-1.085v-.995c0-3.98-1.447-6.149-4.431-6.149-3.753,0-5.38,4.386-5.425,7.144Z" transform="translate(-41.932 -4.56)" fill="#fff"/><path d="M193.253,34.536c0,2.938,3.345,1.537,3.345,2.667,0,.362-.316.452-.9.452-1.9,0-3.435-.09-4.928-.09s-3.029.09-4.928.09c-.589,0-.9-.09-.9-.452,0-1.131,3.345.271,3.345-2.667V23.594c0-3.753-3.616-2.757-3.616-3.753s3.074-.543,8.59-3.164v3.616c3.209-2.4,5.335-3.616,8.274-3.616,3.526,0,5.154,1.944,5.154,5.064v12.8c0,2.938,3.346,1.537,3.346,2.667,0,.362-.317.452-.9.452-1.9,0-3.437-.09-4.928-.09s-3.03.09-4.929.09c-.587,0-.9-.09-.9-.452,0-1.131,3.346.271,3.346-2.667V21.695a2.793,2.793,0,0,0-2.848-2.938c-2.035,0-4.476,1.808-5.606,2.8Z" transform="translate(-50.489 -4.56)" fill="#fff"/><path d="M27.439,33.483a2.4,2.4,0,0,1-1.8-.841,2.536,2.536,0,0,1-.67-1.7V14.917a9.976,9.976,0,1,0-19.952,0V30.943a2.463,2.463,0,0,1-.77,1.769,2.464,2.464,0,0,1-1.77.771,2.39,2.39,0,0,1-1.8-.841A2.531,2.531,0,0,1,0,30.943V15.183A15.075,15.075,0,0,1,1.152,9.327,14.7,14.7,0,0,1,4.314,4.572,15.158,15.158,0,0,1,9.052,1.385,14.865,14.865,0,0,1,14.99.193a14.883,14.883,0,0,1,5.937,1.191,15.2,15.2,0,0,1,4.74,3.188,14.75,14.75,0,0,1,3.161,4.755,15.1,15.1,0,0,1,1.152,5.856v15.76a2.637,2.637,0,0,1-2.54,2.54" transform="translate(0 -0.053)" fill="#fff"/></svg>