<?xml version="1.0" encoding="utf-8"?>
<!-- Generator: Adobe Illustrator 23.0.6, SVG Export Plug-In . SVG Version: 6.00 Build 0)  -->
<svg version="1.1" id="Calque_1" xmlns="http://www.w3.org/2000/svg" xmlns:xlink="http://www.w3.org/1999/xlink" x="0px" y="0px"
	 viewBox="0 0 512 512" style="enable-background:new 0 0 512 512;" xml:space="preserve">
<style type="text/css">
	.st0{fill:#C19E50;stroke:#C19E50;stroke-width:1.87;stroke-linejoin:round;}
</style>
<g>
	<path class="st0" d="M218.3,408.8h-25.5c-7.4-84.6-115.5-123.4-187.6-185c26.8-30.7,58.4-56.9,93.6-77.4
		C159,262.2,213.8,324.2,218.3,408.8"/>
	<path class="st0" d="M251.9,408.8h-25.5c-3.5-84.6-44.8-151.6-94.9-278.8c33.9-14.9,70.2-23.6,107.1-25.8
		C246.1,249.5,251.5,324.2,251.9,408.8"/>
	<path class="st0" d="M285.6,408.8h-25.5c0.5-84.6,5.8-159.3,13.3-304.6c37,2.2,73.2,10.9,107.1,25.8
		C330.5,257.2,289.1,324.2,285.6,408.8"/>
	<path class="st0" d="M319.3,408.8h-25.5c4.4-84.6,59.2-146.6,119.4-262.4c35.2,20.5,66.9,46.6,93.6,77.4
		C434.7,285.5,326.7,324.2,319.3,408.8"/>
</g>
</svg>
