<svg xmlns="http://www.w3.org/2000/svg" viewBox="0 0 232 256.16"><defs><clipPath id="a"><path fill="none" stroke="#fff" stroke-miterlimit="10" stroke-width=".33" d="M143.36 173.57a12.18 12.18 0 01-9.18-4.28 12.93 12.93 0 01-3.41-8.66V76.75a52.58 52.58 0 10-105.17 0v83.9a13.46 13.46 0 01-12.94 12.94 12.18 12.18 0 01-9.18-4.28A12.91 12.91 0 010 160.63V78.12A78.51 78.51 0 016 47.6 76.76 76.76 0 0122.5 22.8a79.19 79.19 0 0124.7-16.6 80.18 80.18 0 0161.84 0 79.29 79.29 0 0124.71 16.6 76.83 76.83 0 0116.47 24.79 78.6 78.6 0 016 30.52v82.5a13.44 13.44 0 01-12.84 12.95z"/></clipPath></defs><g opacity=".7" style="isolation:isolate"><g fill="none" stroke="#fff" stroke-miterlimit="10" clip-path="url(#a)" transform="translate(38.04 35.7)"><ellipse cx="211.06" cy="156.28" stroke-width="1.17" rx="211.06" ry="156.28" transform="rotate(-20.74 87.67 405.92)"/><ellipse cx="192.11" cy="142.25" stroke-width="1.75" rx="192.11" ry="142.25" transform="rotate(-20.74 116.52 347.14)"/><ellipse cx="172.9" cy="128.03" stroke-width="2.34" rx="172.9" ry="128.03" transform="rotate(-20.74 145.78 287.54)"/><ellipse cx="155.62" cy="115.22" stroke-width="2.92" rx="155.62" ry="115.22" transform="rotate(-20.74 172.13 233.9)"/><ellipse cx="140.05" cy="103.71" stroke-width="3.51" rx="140.05" ry="103.71" transform="rotate(-20.74 195.82 185.62)"/><ellipse cx="126.05" cy="93.33" stroke-width="4.09" rx="126.05" ry="93.33" transform="rotate(-20.74 217.15 142.16)"/><ellipse cx="113.44" cy="84" stroke-width="4.68" rx="113.44" ry="84" transform="rotate(-20.74 236.35 103.05)"/><ellipse cx="102.09" cy="75.6" stroke-width="5.26" rx="102.09" ry="75.6" transform="rotate(-20.74 253.64 67.85)"/><ellipse cx="91.89" cy="68.05" stroke-width="5.85" rx="91.89" ry="68.05" transform="rotate(-20.74 269.18 36.2)"/><ellipse cx="82.95" cy="61.42" stroke-width="6.45" rx="82.95" ry="61.42" transform="rotate(-20.45 290.25 7.24)"/><ellipse cx="74.43" cy="55.11" stroke-width="7.02" rx="74.43" ry="55.11" transform="rotate(-20.74 295.78 -18)"/><ellipse cx="66.99" cy="49.6" stroke-width="7.6" rx="66.99" ry="49.6" transform="rotate(-20.74 307.11 -41.08)"/><ellipse cx="60.29" cy="44.64" stroke-width="8.19" rx="60.29" ry="44.64" transform="rotate(-20.74 317.33 -61.87)"/><ellipse cx="54.26" cy="40.18" stroke-width="8.77" rx="54.26" ry="40.18" transform="rotate(-20.74 326.5 -80.56)"/><ellipse cx="48.84" cy="36.16" stroke-width="9.36" rx="48.84" ry="36.16" transform="rotate(-20.74 334.77 -97.4)"/><ellipse cx="43.95" cy="32.54" stroke-width="9.94" rx="43.95" ry="32.54" transform="rotate(-20.74 342.2 -112.57)"/><ellipse cx="39.67" cy="29.38" stroke-width="10.56" rx="39.67" ry="29.38" transform="rotate(-20.45 357.57 -128.86)"/><ellipse cx="35.6" cy="26.36" stroke-width="11.11" rx="35.6" ry="26.36" transform="rotate(-20.74 354.93 -138.47)"/><ellipse cx="32.04" cy="23.73" stroke-width="11.7" rx="32.04" ry="23.73" transform="rotate(-20.74 360.35 -149.52)"/><ellipse cx="28.83" cy="21.35" stroke-width="12.28" rx="28.83" ry="21.35" transform="rotate(-20.74 365.22 -159.46)"/><ellipse cx="25.95" cy="19.22" stroke-width="12.87" rx="25.95" ry="19.22" transform="rotate(-20.74 369.62 -168.38)"/><ellipse cx="23.36" cy="17.3" stroke-width="13.45" rx="23.36" ry="17.3" transform="rotate(-20.74 373.57 -176.44)"/><ellipse cx="21.02" cy="15.56" stroke-width="14.04" rx="21.02" ry="15.56" transform="rotate(-20.74 377.14 -183.7)"/></g><path fill="none" stroke="#fff" stroke-miterlimit="10" stroke-width=".33" d="M181.4 209.26a12.18 12.18 0 01-9.18-4.28 12.93 12.93 0 01-3.41-8.66v-83.88a52.58 52.58 0 10-105.17 0v83.9a13.46 13.46 0 01-12.94 12.94 12.18 12.18 0 01-9.18-4.28 12.91 12.91 0 01-3.48-8.68v-82.5a78.51 78.51 0 016-30.53 76.76 76.76 0 0116.5-24.78 79.19 79.19 0 0124.7-16.61 80.18 80.18 0 0161.83 0 79.29 79.29 0 0124.71 16.6 76.83 76.83 0 0116.47 24.8 78.6 78.6 0 016 30.51v82.51a13.44 13.44 0 01-12.84 12.94z"/><path fill="#fff" d="M212.74 256.14a18.17 18.17 0 01-13.63-6.32 19.02 19.02 0 01-5.07-12.76V113.24a76.83 76.83 0 00-6-30.15 78.24 78.24 0 00-144.12 0 76.77 76.77 0 00-6 30.15v123.82a18.47 18.47 0 01-5.84 13.3 18.67 18.67 0 01-13.38 5.8 18.15 18.15 0 01-13.62-6.33A18.96 18.96 0 010 237.06v-121.8a115.25 115.25 0 018.91-44.98 113.15 113.15 0 0124.45-36.6A117.37 117.37 0 0170.04 9.17a119.6 119.6 0 0191.83 0 117.39 117.39 0 0136.72 24.56 113.24 113.24 0 0124.45 36.55 115.41 115.41 0 018.96 44.97v121.81a18.46 18.46 0 01-5.83 13.3 18.68 18.68 0 01-13.43 5.78z"/></g></svg>