<svg xmlns="http://www.w3.org/2000/svg" viewBox="0 0 788.307 870.5">
    <defs>
        <clipPath id="a">
            <path data-name="NeodenGreyTracé 389"
                d="M467.8,59.408c32.134,13.9,60.377,32.9,83.938,56.46a260.727,260.727,0,0,1,55.995,84.218c13.537,32.29,20.4,67.185,20.4,103.717v280.43a43.873,43.873,0,0,1-11.617,29.415c-8.318,9.4-19.4,14.572-31.191,14.572-7.888,0-19.61-2.318-30.628-13.346-11.044-11.034-13.362-22.756-13.362-30.641V299.087a178.708,178.708,0,1,0-357.413,0V584.233a43.914,43.914,0,0,1-11.607,29.415c-8.324,9.4-19.4,14.572-31.2,14.572-7.882,0-19.6-2.315-30.641-13.355s-13.349-22.749-13.349-30.631V303.8a267.1,267.1,0,0,1,20.406-103.72c13.534-32.265,32.37-60.6,55.985-84.212,23.552-23.552,51.788-42.544,83.948-56.466C289.889,45.4,325.274,38.3,362.63,38.3c37.385,0,72.767,7.1,105.172,21.106"
                transform="translate(-97.129 -38.302)" fill="none" />
        </clipPath>
    </defs>
    <g data-name="NeodenGrey 186" style="mix-blend-mode:multiply;isolation:isolate">
        <g data-name="NeodenGrey 163">
            <g data-name="NeodenGrey 162" clip-path="url(#a)" fill="#f2f2f2" transform="translate(127.944 121.272)">
                <path data-name="NeodenGreyTracé 366"
                    d="M835.9,1119.694c70.841,0,139.758-9.092,204.586-27.415,162.8-46.012,280.242-144.735,330.686-277.981S1399,529.309,1307.5,387.013c-91.4-142.121-240.612-257.827-420.165-325.8C516.475-79.193,130.109,30.186,26.052,305.039s112.993,612.689,483.841,753.093c107.968,40.875,219.159,61.561,326,61.561M561.758,3.7c104.3,0,214.93,19.6,324.254,60.991,178.812,67.7,327.381,182.881,418.35,324.337,90.852,141.277,113.343,291.84,63.322,423.952S1201.1,1043.013,1039.466,1088.7c-161.842,45.741-349.449,33.65-528.255-34.048l-.659,1.742.659-1.742C142.283,914.974-73.8,579.288,29.536,306.358,102.249,114.3,314.076,3.7,561.758,3.7"
                    transform="translate(-557.163 -121.97)" />
                <path data-name="NeodenGreyTracé 367"
                    d="M781.552,1037.045c64.583,0,127.412-8.286,186.518-24.991,148.534-41.98,255.693-132.077,301.74-253.7s25.424-260.1-58.065-389.923c-83.32-129.561-219.334-235.036-382.991-297S493.327-1.573,345.1,40.318C196.564,82.3,89.405,172.4,43.362,294.021S17.937,554.115,101.423,683.94c83.32,129.561,219.337,235.039,382.994,297,98.4,37.254,199.749,56.106,297.135,56.106M531.626,20.912c96.717,0,197.367,18.728,295.151,55.747,162.542,61.542,297.591,166.233,380.268,294.8,82.508,128.3,102.94,265,57.539,384.92s-151.247,208.812-298.034,250.3c-147.1,41.57-317.611,30.574-480.157-30.965S188.8,809.48,106.127,680.918C23.618,552.621,3.184,415.92,48.588,296S199.835,87.186,346.621,45.7c58.606-16.562,120.948-24.784,185.006-24.784"
                    transform="translate(-515.134 -88.485)" />
                <path data-name="NeodenGreyTracé 368"
                    d="M725.752,952.454c205.125,0,380.691-91.87,441.055-251.305,85.677-226.3-92.711-504.339-397.655-619.791S146.413,56.09,60.739,282.391C19.157,392.215,37.757,517.229,113.11,634.4c75.127,116.82,197.75,211.92,345.281,267.775l1.318-3.484-1.318,3.484c90.1,34.115,181.334,50.276,267.361,50.276M501.6,38.489c85.206,0,175.583,16.014,264.919,49.836,301.1,114,477.546,387.726,393.324,610.186C1100.6,854.966,927.922,945.034,725.946,945.05c-85.206,0-175.586-16.018-264.918-49.839-146.05-55.294-267.383-149.346-341.65-264.839C45.333,515.235,26.981,392.587,67.7,285.027,126.94,128.57,299.622,38.489,501.6,38.489"
                    transform="translate(-472.323 -54.067)" />
                <path data-name="NeodenGreyTracé 369"
                    d="M675.718,877.153c185.168,0,343.682-82.992,398.206-227.008,37.573-99.24,20.791-212.165-47.257-317.977C958.906,226.8,848.317,141.023,715.278,90.655S442.574,31.317,322.021,65.39C200.959,99.607,113.595,173.1,76.028,272.342-1.338,476.687,159.546,727.67,434.67,831.833c81.222,30.752,163.482,45.321,241.048,45.321M473.759,54.365c78.05,0,159.291,15.12,238.223,45,131.185,49.667,240.16,134.131,306.851,237.838,66.411,103.268,82.881,213.235,46.381,309.644C989.671,846.389,708.279,925.468,437.966,823.126S9.187,475.18,84.734,275.638c36.5-96.408,121.67-167.892,239.822-201.287C371.813,61,422.089,54.365,473.759,54.365"
                    transform="translate(-433.524 -23.543)" />
                <path data-name="NeodenGreyTracé 370"
                    d="M631.48,809.445c47.407,0,93.536-6.085,136.937-18.352,109.391-30.918,188.346-97.367,222.32-187.107s18.826-191.817-42.662-287.432c-61.147-95.087-160.918-172.475-280.93-217.91C418.818,4.623,159.912,78.343,90.017,262.972s75.264,411.322,323.592,505.342c72.134,27.313,146.445,41.13,217.872,41.13M449.449,68.879c68.723,0,141.653,12.926,213.742,40.216C780.976,153.689,878.814,229.514,938.675,322.6c59.523,92.558,74.3,191.084,41.611,277.43S871.274,750.409,765.376,780.339c-106.5,30.1-230.02,22.119-347.812-22.476l-1.977,5.226,1.977-5.226C175,666.025,32.751,445.793,100.465,266.927,148.059,141.219,286.923,68.879,449.449,68.879"
                    transform="translate(-398.928 4.223)" />
                <path data-name="NeodenGreyTracé 371"
                    d="M590.895,748.341c151.13,0,280.6-67.892,325.184-185.636,63.2-166.934-67.835-371.823-292.1-456.729S165.841,87.8,102.637,254.736s67.838,371.823,292.1,456.732l2.305-6.1-2.305,6.1c66.086,25.017,133.013,36.872,196.154,36.872M427.483,82.061c61.676,0,127.164,11.607,191.877,36.108C836.9,200.531,964.539,397.879,903.885,558.091S616.893,781.634,399.355,699.272,54.176,419.565,114.833,259.354C157.444,146.8,281.828,82.061,427.483,82.061"
                    transform="translate(-367.909 28.98)" />
                <path data-name="NeodenGreyTracé 372"
                    d="M554.794,693.737c136.682,0,253.824-61.485,294.183-168.086,57.189-151.056-61.154-336.371-263.8-413.1S171.116,96.3,113.923,247.357s61.154,336.371,263.81,413.1c59.644,22.581,120.053,33.277,177.06,33.277M407.718,94.084c55.342,0,114.091,10.413,172.172,32.4C774.863,200.3,889.327,377,835.042,520.377S577.974,720.342,383.007,646.521,73.574,396.006,127.858,252.637C165.97,151.974,277.307,94.084,407.718,94.084"
                    transform="translate(-340.002 51.195)" />
                <path data-name="NeodenGreyTracé 373"
                    d="M522.929,645.1A371.419,371.419,0,0,0,623.919,631.56c81.095-22.918,139.669-72.289,164.931-139.019s14.075-142.516-31.507-213.395c-45.072-70.089-118.55-127.106-206.9-160.555S369.283,79.207,289.093,101.87C208,124.788,149.428,174.16,124.162,240.889S110.091,383.4,155.672,454.284c45.072,70.089,118.55,127.109,206.9,160.555C415.645,634.93,470.332,645.1,522.929,645.1M390.106,105.086c50.562,0,103.22,9.8,154.406,29.182,85.011,32.185,155.588,86.858,198.733,153.948,42.633,66.3,53.263,136.755,29.927,198.393S695.212,593.991,619.359,615.431c-76.751,21.686-165.841,15.916-250.856-16.272s-155.591-86.852-198.73-153.941c-42.636-66.3-53.266-136.755-29.931-198.393S217.8,139.44,293.653,118a354.814,354.814,0,0,1,96.453-12.916"
                    transform="translate(-315.059 70.987)" />
                <path data-name="NeodenGreyTracé 374"
                    d="M493.39,600.813c112.088,0,208.255-50.594,241.44-138.249,46.964-124.046-49.75-276.048-215.592-338.835S180.272,110.775,133.3,234.827c-22.941,60.593-12.811,129.364,28.523,193.638,40.77,63.4,107.2,114.964,187.069,145.2,48.655,18.419,97.956,27.147,144.5,27.147M374.254,115.093c44.448,0,91.692,8.375,138.389,26.058C668.88,200.3,760.738,341.527,717.411,455.972S511.732,615.394,355.485,556.244C279.33,527.409,216.119,478.451,177.492,418.39c-38.06-59.186-47.569-122.033-26.768-176.968C181.1,161.187,269.99,115.093,374.254,115.093"
                    transform="translate(-292.615 89.003)" />
                <path data-name="NeodenGreyTracé 375"
                    d="M467.087,561.431c101.66,0,188.938-45.986,219.085-125.616,42.63-112.6-44.9-250.48-195.116-307.354S183.947,116.934,141.311,229.535s44.9,250.48,195.119,307.354c43.986,16.655,88.559,24.542,130.657,24.542M359.857,124.283c39.8,0,82.11,7.5,123.944,23.342,139.653,52.874,221.84,178.9,183.209,280.939S483.333,570.6,343.681,517.728s-221.836-178.9-183.206-280.939c27.058-71.471,106.331-112.506,199.383-112.506"
                    transform="translate(-272.292 105.024)" />
                <path data-name="NeodenGreyTracé 376"
                    d="M444.171,526.446a275.621,275.621,0,0,0,75-10.063c60.7-17.151,104.6-54.24,123.6-104.427s10.674-107.038-23.447-160.094c-33.44-52-87.88-94.278-153.295-119.043s-134.208-29.144-193.7-12.327c-60.7,17.154-104.592,54.243-123.594,104.427s-10.674,107.041,23.444,160.1c33.443,52,87.884,94.278,153.3,119.043,39.261,14.865,79.741,22.386,118.7,22.386M347.348,132.775c36.245,0,74.016,7.038,110.761,20.95,60.966,23.081,111.541,62.227,142.407,110.226,30.192,46.948,37.77,96.7,21.342,140.092S566.8,479.7,513.088,494.875c-54.919,15.527-118.738,11.362-179.7-11.719S221.847,420.93,190.98,372.928c-30.195-46.948-37.774-96.7-21.345-140.1S224.691,157.183,278.409,142a253.675,253.675,0,0,1,68.94-9.225"
                    transform="translate(-254.296 119.263)" />
                <path data-name="NeodenGreyTracé 377"
                    d="M423.014,494.828a250.313,250.313,0,0,0,68.051-9.126c55.272-15.626,95.259-49.445,112.595-95.237C638.934,297.3,567.042,183.411,443.4,136.6c-59.278-22.444-121.645-26.4-175.611-11.149-55.269,15.62-95.256,49.441-112.592,95.23-35.274,93.173,36.615,207.057,160.256,253.868h0c35.567,13.464,72.251,20.278,107.56,20.278M335.872,140.523c32.37,0,66.118,6.289,98.956,18.721C545.984,201.33,611.561,301.209,581.012,381.9c-14.55,38.43-48.833,67.019-96.533,80.5-49.011,13.852-105.99,10.123-160.45-10.5h0C212.874,409.82,147.3,309.941,177.845,229.254c14.55-38.43,48.833-67.019,96.533-80.5a226.262,226.262,0,0,1,61.494-8.229"
                    transform="translate(-237.98 132.127)" />
                <path data-name="NeodenGreyTracé 378"
                    d="M403.656,466.252c76.439,0,142.239-34.876,165.052-95.144,32.166-84.957-33.093-188.693-145.474-231.24s-229.979-8.044-262.145,76.917,33.093,188.7,145.471,231.243h0a275.215,275.215,0,0,0,97.093,18.224m-78.2-318.691A251.329,251.329,0,0,1,414,164.254c98.934,37.458,157.393,126.11,130.319,197.622s-129.59,99.214-228.527,61.765h0c-98.937-37.455-157.4-126.109-130.322-197.622,18.887-49.884,74.5-78.458,139.978-78.458"
                    transform="translate(-223.449 143.753)" />
                <path data-name="NeodenGreyTracé 379"
                    d="M387.283,441.111a206.949,206.949,0,0,0,56.25-7.55c46.072-13.018,79.442-41.315,93.963-79.668s8.257-81.655-17.642-121.922c-25.049-38.952-65.742-70.586-114.585-89.078-102.3-38.732-209.427-7.095-238.813,70.525-14.521,38.353-8.257,81.652,17.639,121.922,25.049,38.949,65.746,70.586,114.588,89.075a251.365,251.365,0,0,0,88.6,16.7M316.407,154.125a224.133,224.133,0,0,1,78.967,14.9c43.286,16.387,79.146,44.111,100.981,78.06,20.985,32.634,26.316,67.054,15.011,96.915s-38.1,52.129-75.433,62.679c-38.844,10.983-84.078,8-127.358-8.388S229.431,354.18,207.6,320.227c-20.985-32.634-26.319-67.054-15.011-96.918,16.664-44.006,65.832-69.185,123.823-69.185"
                    transform="translate(-210.525 154.045)" />
                <path data-name="NeodenGreyTracé 380"
                    d="M372.013,418.492a188.537,188.537,0,0,0,51.253-6.878c42.194-11.926,72.774-37.891,86.11-73.118,26.9-71.057-27.09-157.594-120.358-192.9s-191.03-6.235-217.932,64.825,27.093,157.594,120.358,192.9a228.637,228.637,0,0,0,80.569,15.171m-63.87-258.3a199.662,199.662,0,0,1,70.325,13.273c77.9,29.494,124.122,98.79,103.038,154.48-9.91,26.17-33.471,45.7-66.347,54.992-34.481,9.748-74.672,7.089-113.162-7.483-77.9-29.494-124.123-98.794-103.042-154.483,14.648-38.681,57.982-60.778,109.187-60.778"
                    transform="translate(-198.781 163.245)" />
                <path data-name="NeodenGreyTracé 381"
                    d="M357.93,398.143c58.361,0,108.789-26.959,126.377-73.414,24.682-65.2-24.539-144.48-109.729-176.735S200,142.545,175.316,207.746s24.542,144.48,109.729,176.732a206.562,206.562,0,0,0,72.885,13.664M300.852,165.8a177.5,177.5,0,0,1,62.513,11.808c68.86,26.071,109.831,87.04,91.329,135.908s-89.584,67.421-158.435,41.35S186.426,267.83,204.927,218.955C217.745,185.1,255.8,165.8,300.852,165.8"
                    transform="translate(-188.362 171.465)" />
                <path data-name="NeodenGreyTracé 382"
                    d="M345.753,380.124c53.568,0,99.93-24.874,116.139-67.682,22.708-59.979-22.253-132.787-100.217-162.307S201.8,145.4,179.1,205.372s22.25,132.784,100.214,162.3a188.2,188.2,0,0,0,66.44,12.451M294.343,171.006a157.527,157.527,0,0,1,55.463,10.486c60.676,22.972,96.889,76.388,80.731,119.075s-78.677,58.724-139.35,35.755-96.9-76.394-80.738-119.078c11.158-29.469,44.41-46.238,83.894-46.238"
                    transform="translate(-179.045 178.796)" />
                <path data-name="NeodenGreyTracé 383"
                    d="M334.986,364.157c49.295,0,92.036-23.02,107.019-62.587,20.944-55.323-20.2-122.361-91.715-149.435-33.739-12.776-69.385-14.989-100.373-6.229-32.9,9.3-56.8,29.7-67.309,57.46s-6.111,58.874,12.378,87.626c17.419,27.08,45.591,49.03,79.334,61.806v-.006a171.782,171.782,0,0,0,60.666,11.365M289.172,176.005a137.961,137.961,0,0,1,48.588,9.228c53.266,20.164,85.18,66.733,71.146,103.806S340.116,339.86,286.85,319.7v0c-26.7-10.107-48.754-27.1-62.1-47.852-12.27-19.078-15.483-38.949-9.047-55.953s22-29.762,43.834-35.933a109.046,109.046,0,0,1,29.631-3.955"
                    transform="translate(-170.858 185.235)" />
                <path data-name="NeodenGreyTracé 384"
                    d="M325.245,349.768c45.489,0,85-21.377,98.892-58.061,19.377-51.186-18.355-113.082-84.11-137.978s-135.016-3.506-154.4,47.677c-9.77,25.8-5.722,54.664,11.394,81.279,15.983,24.858,41.811,44.993,72.716,56.692a157.259,157.259,0,0,0,55.5,10.391M284.3,180.6a120.877,120.877,0,0,1,42.541,7.971c45.757,17.323,74.359,58.514,62.462,89.944s-60.612,43.35-106.369,26.023c-23.495-8.894-42.878-23.813-54.572-42-10.572-16.432-13.371-33.455-7.888-47.938,8.178-21.609,33.767-34,63.825-34"
                    transform="translate(-163.435 191.147)" />
                <path data-name="NeodenGreyTracé 385"
                    d="M316.37,337.148c42.095,0,78.741-19.919,91.664-54.052,9.114-24.068,5.378-50.938-10.515-75.652-14.709-22.874-38.433-41.385-66.806-52.126s-58.409-12.582-84.575-5.187c-28.278,7.99-48.868,25.647-57.985,49.718-17.982,47.505,16.705,104.825,77.324,127.778v0a144.21,144.21,0,0,0,50.893,9.518M279.36,184.761a106.493,106.493,0,0,1,37.5,7.139c20.591,7.792,37.548,20.826,47.754,36.7,9.021,14.024,11.451,28.462,6.837,40.646-10.174,26.87-52.368,36.856-92.129,21.8S214.56,240.568,224.738,213.7c4.611-12.184,15.989-21.393,32.038-25.928a83.045,83.045,0,0,1,22.584-3.009"
                    transform="translate(-156.645 196.23)" />
                <path data-name="NeodenGreyTracé 386"
                    d="M309.137,325.9a112.806,112.806,0,0,0,30.647-4.117c25.969-7.343,45.687-24.291,54.1-46.505s4.863-47.973-9.735-70.672c-13.569-21.1-35.424-38.165-61.529-48.05-56.046-21.224-115.273-2.49-132.029,41.754s15.225,97.5,71.271,118.722a134.14,134.14,0,0,0,47.279,8.869M275.254,188.7a93.5,93.5,0,0,1,32.85,6.178c17.7,6.7,32.847,18.323,41.576,31.892,4.4,6.853,11.031,20.387,5.879,34s-19.078,19.364-26.921,21.581c-15.521,4.385-34.573,3.063-52.269-3.64-34.328-12.992-56.059-43.168-47.457-65.889,5.824-15.384,24.339-24.119,46.343-24.119"
                    transform="translate(-150.785 200.908)" />
                <path data-name="NeodenGreyTracé 387"
                    d="M302.193,315.988a104.356,104.356,0,0,0,28.389-3.821c24.291-6.866,42.757-22.778,50.664-43.665,15.922-42.057-13.011-90.68-65.873-110.694-24.087-9.12-49.658-10.668-72-4.353-24.294,6.866-42.757,22.781-50.667,43.665s-4.608,45.04,9.044,66.274c12.553,19.524,32.736,35.3,56.829,44.419a123.713,123.713,0,0,0,43.611,8.174M271.686,192.5a81.411,81.411,0,0,1,28.52,5.375c29.38,11.126,48.145,36.525,40.974,55.46-4.175,11.031-15.734,15.769-22.253,17.61-13.362,3.774-29.835,2.618-45.178-3.194S245.3,251.9,237.784,240.221c-3.662-5.7-9.184-16.9-5.009-27.931s15.734-15.769,22.253-17.61a61.441,61.441,0,0,1,16.658-2.184"
                    transform="translate(-145.529 204.891)" />
                <path data-name="NeodenGreyTracé 388"
                    d="M296.531,307.273c33.812,0,62.886-16.422,73.649-44.849,14.941-39.468-11.884-84.964-61.071-103.589-22.3-8.436-46-9.862-66.723-4-22.813,6.448-40.175,21.453-47.639,41.171-14.941,39.455,11.884,84.954,61.071,103.586a115.391,115.391,0,0,0,40.713,7.681M268.712,196a70.041,70.041,0,0,1,24.568,4.646c27.055,10.241,40.21,32.437,35.092,45.948s-29.673,21.434-56.724,11.193-40.21-32.44-35.092-45.948c3.283-8.674,12.68-12.483,17.989-13.986A52.236,52.236,0,0,1,268.712,196"
                    transform="translate(-141.017 208.489)" />
            </g>
        </g>
        <path data-name="NeodenGreyTracé 391"
            d="M121.813,870.719c17.508,0,33.959-7.639,46.311-21.508,11.25-12.563,17.24-27.6,17.24-43.4V385.044a262.222,262.222,0,0,1,77.257-186.9,265.371,265.371,0,0,1,188.037-76.8c36.312,0,70.994,6.824,103.08,20.282A262.119,262.119,0,0,1,695.554,282.591a260.819,260.819,0,0,1,20.4,102.452V805.808c0,11.639,3.442,28.934,19.842,45.216,16.352,16.272,33.755,19.7,45.461,19.7,17.508,0,33.959-7.639,46.308-21.508,11.254-12.547,17.247-27.59,17.247-43.4V392c0-53.9-10.19-105.395-30.284-153.047-20.055-47.569-48.024-89.384-83.129-124.269-34.978-34.774-76.9-62.806-124.606-83.314C558.684,10.7,506.16.219,450.659.219,395.2.219,342.672,10.7,294.539,31.363,246.8,51.905,204.879,79.931,169.914,114.686,134.86,149.53,106.894,191.338,86.8,238.949,66.694,286.69,56.507,338.169,56.507,392v413.81c0,11.633,3.439,28.915,19.823,45.206s33.78,19.705,45.483,19.705"
            transform="translate(-56.507 -.219)" fill="#f2f2f2" />
    </g>
</svg>