<svg xmlns="http://www.w3.org/2000/svg" viewBox="0 0 272 225"><g transform="translate(860.555 499.967)" opacity=".5" fill="none" stroke="#fff" stroke-miterlimit="10"><ellipse transform="matrix(.9999 -.01604 .01604 .9999 1.9763 -6.2321)" cx="-387.5" cy="-126.3" rx="505.1" ry="402.3" stroke-width="2.804"/><ellipse transform="matrix(.9999 -.01604 .01604 .9999 1.9764 -6.232)" cx="-387.5" cy="-126.3" rx="459.8" ry="366.2" stroke-width="4.205"/><ellipse transform="matrix(.9999 -.01604 .01604 .9999 1.9763 -6.232)" cx="-387.5" cy="-126.3" rx="413.8" ry="329.6" stroke-width="5.607"/><ellipse cx="-392.3" cy="-120.3" rx="372.4" ry="296.6" stroke-width="7.009"/><ellipse transform="matrix(.9999 -.01604 .01604 .9999 1.9763 -6.232)" cx="-387.5" cy="-126.3" rx="335.2" ry="266.9" stroke-width="8.411"/><ellipse transform="matrix(.9999 -.01604 .01604 .9999 1.9763 -6.2321)" cx="-387.5" cy="-126.3" rx="301.7" ry="240.2" stroke-width="9.812"/><ellipse transform="matrix(.9999 -.01604 .01604 .9999 1.9763 -6.232)" cx="-387.5" cy="-126.3" rx="271.5" ry="216.2" stroke-width="11.214"/><path d="M-631.9-122.4c-1.7-107.5,106.3-196.3,241.2-198.5s245.7,83.2,247.4,190.7S-249.5,66.1-384.4,68.2 S-630.1-14.9-631.9-122.4z" stroke-width="12.616"/><ellipse transform="matrix(.9999 -.01604 .01604 .9999 1.9763 -6.232)" cx="-387.5" cy="-126.3" rx="219.9" ry="175.1" stroke-width="14.018"/><ellipse transform="matrix(.9999 -.01604 .01604 .9999 1.9763 -6.2321)" cx="-387.5" cy="-126.3" rx="197.9" ry="157.6" stroke-width="15.419"/><path d="M-565.7-123.5c-1.3-78.3,77.5-143.1,175.8-144.7s179.1,60.7,180.4,139S-286.9,13.9-385.3,15.5 S-564.4-45.1-565.7-123.5z" stroke-width="16.821"/><path d="M-547.8-123.8c-1.1-70.5,69.7-128.8,158.2-130.2s161.2,54.6,162.4,125.1S-297-0.1-385.5,1.3 S-546.7-53.3-547.8-123.8z" stroke-width="18.223"/><ellipse transform="matrix(.9999 -.01604 .01604 .9999 1.9763 -6.232)" cx="-387.5" cy="-126.3" rx="144.3" ry="114.9" stroke-width="19.625"/><ellipse transform="matrix(.9999 -.01606 .01606 .9999 1.9785 -6.2388)" cx="-387.5" cy="-126.3" rx="129.9" ry="103.4" stroke-width="21.026"/><path d="M-504.4-124.5c-0.8-51.4,50.8-93.9,115.4-94.9s117.5,39.8,118.3,91.2s-50.8,93.9-115.4,94.9 S-503.6-73.1-504.4-124.5z" stroke-width="22.428"/><path d="M-492.7-124.6c-0.7-46.3,45.7-84.5,103.8-85.4s105.8,35.8,106.5,82.1s-45.7,84.5-103.8,85.4 S-492-78.4-492.7-124.6z" stroke-width="23.83"/><path d="M-482.2-124.8c-0.7-41.6,41.2-76.1,93.4-76.9s95.2,32.2,95.9,73.9s-41.2,76.1-93.4,76.9 S-481.5-83.2-482.2-124.8z" stroke-width="25.232"/><path d="M-472.7-125c-0.6-37.5,37.1-68.5,84.1-69.2s85.7,29,86.3,66.5s-37,68.5-84.1,69.2S-472.1-87.5-472.7-125z" stroke-width="26.633"/><path d="M-464.2-125.1c-0.5-33.7,33.3-61.6,75.7-62.3s77.1,26.1,77.6,59.8s-33.3,61.6-75.7,62.3 S-463.7-91.4-464.2-125.1z" stroke-width="28.035"/><path d="M-456.5-125.2c-0.5-30.4,30-55.5,68.1-56.1s69.4,23.5,69.9,53.8s-30,55.4-68.1,56.1S-456.1-94.9-456.5-125.2 z" stroke-width="29.437"/><path d="M-449.6-125.3c-0.4-27.3,27-49.9,61.3-50.5s62.5,21.1,62.9,48.5s-27,49.9-61.3,50.5S-449.2-98-449.6-125.3z" stroke-width="30.839"/><path d="M-443.4-125.4c-0.4-24.6,24.3-44.9,55.2-45.4s56.2,19,56.6,43.6s-24.3,44.9-55.2,45.4 S-443-100.8-443.4-125.4z" stroke-width="32.24"/><path d="M-437.8-125.5c-0.4-22.1,21.9-40.4,49.7-40.9c27.8-0.4,50.6,17.1,50.9,39.3s-21.9,40.4-49.7,40.9 S-437.5-103.4-437.8-125.5z" stroke-width="33.642"/></g></svg>