<svg xmlns="http://www.w3.org/2000/svg" id="Calque_1" x="0" y="0" version="1.1" viewBox="0 0 37 31" xml:space="preserve">
  <style>
    .st0{fill:none;stroke:#fff;stroke-width:3;stroke-linecap:round;stroke-miterlimit:10}
  </style>
  <path d="M1.6,3.5c5.6,0,5.6,0,11.3,0s5.6,0,11.3,0s5.6,0,11.3,0" class="st0"/>
  <path d="M1.6,13.5c5.6,0,5.6,0,11.3,0s5.6,0,11.3,0s5.6,0,11.3,0" class="st0"/>
  <path d="M1.6,23.5c5.6,0,5.6,0,11.3,0s5.6,0,11.3,0s5.6,0,11.3,0" class="st0"/>
  <path d="M1.5,3.5c5.6,0,5.6,6,11.3,6s5.6-6,11.3-6s5.6,6,11.3,6" class="st0"/>
  <path d="M1.5,13.5c5.6,0,5.6,6,11.3,6s5.6-6,11.3-6s5.6,6,11.3,6" class="st0"/>
  <path d="M1.5,23.5c5.6,0,5.6,6,11.3,6s5.6-6,11.3-6s5.6,6,11.3,6" class="st0"/>
  <path d="M6.5,1.5c4,4,4,4,8,8s4,4,8,8s4,4,8,8" class="st0"/>
  <path d="M6.5,25.5c4-4,4-4,8-8s4-4,8-8s4-4,8-8" class="st0"/>
</svg>
