<svg xmlns="http://www.w3.org/2000/svg" id="Calque_1" x="0" y="0" version="1.1" viewBox="0 0 70.8 29" xml:space="preserve"><style>.st0{fill:none;stroke:#fff;stroke-width:3;stroke-linecap:round;stroke-miterlimit:10}</style><path d="M1.5,1.5c5.6,0,5.6,6,11.3,6s5.6-6,11.3-6s5.6,6,11.3,6s5.6-6,11.3-6s5.7,6,11.3,6s5.6-6,11.3-6" class="st0"/><path d="M1.5,11.5c5.6,0,5.6,6,11.3,6s5.6-6,11.3-6s5.6,6,11.3,6s5.6-6,11.3-6s5.7,6,11.3,6s5.6-6,11.3-6" class="st0"/><path d="M1.5,21.5c5.6,0,5.6,6,11.3,6s5.6-6,11.3-6s5.6,6,11.3,6s5.6-6,11.3-6s5.7,6,11.3,6s5.6-6,11.3-6" class="st0"/></svg>